<?xml version="1.0" encoding="UTF-8"?>
<svg version="1.1" xmlns="http://www.w3.org/2000/svg" width="248" height="249">
<path d="M0 0 C2.00404392 1.59823494 3.97117739 3.22954175 5.9375 4.875 C6.70707031 5.5040625 7.47664062 6.133125 8.26953125 6.78125 C27.07928381 22.60589842 39.45070622 45.46848579 45.9375 68.875 C46.2778125 70.06351562 46.618125 71.25203125 46.96875 72.4765625 C54.68469786 105.26934091 47.41807713 140.52567024 29.9375 168.875 C26.87642905 173.43498132 23.46450202 177.67017023 19.9375 181.875 C19.26976562 182.69484375 18.60203125 183.5146875 17.9140625 184.359375 C12.8776162 190.32088287 7.11983641 195.13754391 0.9375 199.875 C0.19242188 200.45894531 -0.55265625 201.04289063 -1.3203125 201.64453125 C-28.56046785 221.90854926 -62.48429025 228.81752677 -95.8984375 224.1875 C-118.24546296 220.37482726 -138.74851584 210.36368967 -156.0625 195.875 C-157.21685547 194.93140625 -157.21685547 194.93140625 -158.39453125 193.96875 C-181.3906301 174.62212764 -195.63541013 144.33777323 -199.0625 114.875 C-201.50662457 77.09022765 -191.7556079 43.69730739 -166.9375 14.9375 C-124.60932545 -30.8546569 -49.56615929 -38.38840265 0 0 Z " fill="#FEFEFE" transform="translate(199.0625,24.125)"/>
<path d="M0 0 C2.00404392 1.59823494 3.97117739 3.22954175 5.9375 4.875 C6.70707031 5.5040625 7.47664062 6.133125 8.26953125 6.78125 C27.07928381 22.60589842 39.45070622 45.46848579 45.9375 68.875 C46.2778125 70.06351562 46.618125 71.25203125 46.96875 72.4765625 C54.68469786 105.26934091 47.41807713 140.52567024 29.9375 168.875 C26.87642905 173.43498132 23.46450202 177.67017023 19.9375 181.875 C19.26976562 182.69484375 18.60203125 183.5146875 17.9140625 184.359375 C12.8776162 190.32088287 7.11983641 195.13754391 0.9375 199.875 C0.19242188 200.45894531 -0.55265625 201.04289063 -1.3203125 201.64453125 C-28.56046785 221.90854926 -62.48429025 228.81752677 -95.8984375 224.1875 C-118.24546296 220.37482726 -138.74851584 210.36368967 -156.0625 195.875 C-157.21685547 194.93140625 -157.21685547 194.93140625 -158.39453125 193.96875 C-181.3906301 174.62212764 -195.63541013 144.33777323 -199.0625 114.875 C-201.50662457 77.09022765 -191.7556079 43.69730739 -166.9375 14.9375 C-124.60932545 -30.8546569 -49.56615929 -38.38840265 0 0 Z M-149.0625 11.875 C-149.85914063 12.52726562 -150.65578125 13.17953125 -151.4765625 13.8515625 C-171.96731404 31.21991381 -183.52445498 55.00238966 -189.0625 80.875 C-189.25585938 81.76832031 -189.44921875 82.66164063 -189.6484375 83.58203125 C-192.44443891 105.81815567 -189.40796907 127.59135035 -180.0625 147.875 C-179.59972656 148.90882813 -179.13695312 149.94265625 -178.66015625 151.0078125 C-166.1218142 177.61271558 -143.43325454 197.9925693 -116.1875 208.75 C-114.15257459 209.47747334 -112.11128977 210.18754136 -110.0625 210.875 C-109.21429688 211.17019531 -108.36609375 211.46539062 -107.4921875 211.76953125 C-79.20542163 221.00138571 -47.71449078 216.25111041 -21.53125 203.1015625 C5.39027641 188.80750512 26.16368239 164.18452728 35.30419922 135.05126953 C43.93043884 105.40813153 41.16259226 73.38101051 26.9375 45.875 C13.79585322 21.95707703 -6.77627615 3.17799866 -32.0625 -7.125 C-32.96226562 -7.50269531 -33.86203125 -7.88039063 -34.7890625 -8.26953125 C-45.65757498 -12.54960917 -57.4167435 -14.61100066 -69.0625 -15.125 C-70.03533936 -15.18179932 -70.03533936 -15.18179932 -71.02783203 -15.23974609 C-99.50732646 -16.76302305 -127.55130656 -6.77756308 -149.0625 11.875 Z " fill="#4573C4" transform="translate(199.0625,24.125)"/>
<path d="M0 0 C2.64 0 5.28 0 8 0 C8 26.07 8 52.14 8 79 C29.78 79 51.56 79 74 79 C74 81.97 74 84.94 74 88 C49.91 88 25.82 88 1 88 C0.835 77.1925 0.67 66.385 0.5 55.25 C0.44779297 51.88200195 0.39558594 48.51400391 0.34179688 45.04394531 C0.11419105 30.02873202 -0.0841838 15.01745437 0 0 Z " fill="#4E75BA" transform="translate(113,47)"/>
<path d="M0 0 C21.78 0 43.56 0 66 0 C66.495 3.96 66.495 3.96 67 8 C42.97864581 8.13945945 19.00822231 7.80627828 -5 7 C-5 6.67 -5 6.34 -5 6 C18.1 6 41.2 6 65 6 C65 4.68 65 3.36 65 2 C43.22 2 21.44 2 -1 2 C-0.67 1.34 -0.34 0.68 0 0 Z " fill="#345896" transform="translate(120,127)"/>
<path d="M0 0 C2.31 0 4.62 0 7 0 C7 20.13 7 40.26 7 61 C6.67 61 6.34 61 6 61 C6 41.53 6 22.06 6 2 C4.68 2 3.36 2 2 2 C2 24.11 2 46.22 2 69 C1.67 69 1.34 69 1 69 C0.85453568 62.38792174 0.71254874 55.77577474 0.57275391 49.16357422 C0.52501412 46.92364898 0.47653628 44.68373932 0.42724609 42.44384766 C0.11645416 28.29330062 -0.07170636 14.15403785 0 0 Z " fill="#335591" transform="translate(113,47)"/>
</svg>
