<?xml version="1.0" encoding="UTF-8"?>
<svg version="1.1" xmlns="http://www.w3.org/2000/svg" width="178" height="218">
<path d="M0 0 C0.65594147 -0.0087616 1.31188293 -0.01752319 1.98770142 -0.02655029 C4.14482794 -0.04846494 6.29988581 -0.03402345 8.45703125 -0.01708984 C9.96248771 -0.02046035 11.4679415 -0.02531493 12.97338867 -0.03158569 C16.12412497 -0.03894613 19.27415113 -0.02827952 22.42480469 -0.00488281 C26.4569908 0.02360601 30.48751296 0.00719737 34.51963806 -0.02274513 C37.62703923 -0.04084144 40.73404798 -0.03504973 43.84146118 -0.02210617 C45.32777098 -0.01877853 46.81411679 -0.02283672 48.30038452 -0.03450394 C50.38089898 -0.04725309 52.45874605 -0.02778738 54.5390625 0 C56.31180542 0.00596695 56.31180542 0.00596695 58.12036133 0.01205444 C62.20194858 0.83496148 63.70491177 2.43341269 66.26953125 5.64697266 C66.8371582 8.69311523 66.8371582 8.69311523 66.7578125 12.04150391 C66.74169922 13.24355469 66.72558594 14.44560547 66.70898438 15.68408203 C66.66708984 16.92996094 66.62519531 18.17583984 66.58203125 19.45947266 C66.54819336 21.35729492 66.54819336 21.35729492 66.51367188 23.29345703 C66.45482203 26.41249884 66.37264495 29.52913168 66.26953125 32.64697266 C66.82219162 32.6358696 67.37485199 32.62476654 67.94425964 32.61332703 C73.7029909 32.50259997 79.46141921 32.42725081 85.22094727 32.37231445 C87.36950974 32.34718981 89.5179869 32.31308405 91.66625977 32.26977539 C94.75688737 32.20903473 97.84638388 32.18074222 100.9375 32.15869141 C101.89601364 32.13288498 102.85452728 32.10707855 103.84208679 32.08049011 C108.250427 32.07864144 110.6121548 32.22328426 114.38476562 34.65478516 C116.80022281 38.48947987 116.90650141 41.62185656 116.7578125 46.01025391 C116.74720039 47.19822823 116.74720039 47.19822823 116.7363739 48.41020203 C116.70849369 50.92760654 116.64577325 53.44274622 116.58203125 55.95947266 C116.55693986 57.67102896 116.53412816 59.3826203 116.51367188 61.09423828 C116.4629471 65.28004692 116.36510162 69.4609904 116.26953125 73.64697266 C110.32953125 73.64697266 104.38953125 73.64697266 98.26953125 73.64697266 C98.2784137 75.20774536 98.28729614 76.76851807 98.29644775 78.37658691 C98.37755817 93.09021488 98.43774911 107.80376057 98.47677994 122.51755524 C98.49738032 130.08194475 98.52545231 137.64616705 98.57128906 145.21044922 C98.61123452 151.80567144 98.63698241 158.40077251 98.64588523 164.99611235 C98.65108704 168.48637615 98.66325963 171.97629348 98.69245148 175.46644592 C98.72482178 179.36848302 98.72548571 183.27018523 98.72363281 187.17236328 C98.73801392 188.32179413 98.75239502 189.47122498 98.76721191 190.65548706 C98.72153285 199.55411966 96.63925219 206.10031502 90.26953125 212.64697266 C85.3881963 216.14212729 81.14586189 218.75938153 75.01435852 218.79414368 C74.14672379 218.80129898 73.27908905 218.80845428 72.38516235 218.81582642 C71.43603973 218.81851532 70.48691711 218.82120422 69.5090332 218.82397461 C68.00609459 218.83383141 68.00609459 218.83383141 66.47279358 218.84388733 C63.15113247 218.8636255 59.82951662 218.8752848 56.5078125 218.88525391 C54.80583741 218.8913672 54.80583741 218.8913672 53.06947899 218.89760399 C47.0626786 218.91846802 41.05590106 218.93276771 35.04907227 218.94213867 C28.84951746 218.95319717 22.65032217 218.98759007 16.45089436 219.02731037 C11.68014364 219.05347781 6.90947851 219.0618307 2.13866234 219.06542015 C-0.14623248 219.07028659 -2.43112346 219.08190215 -4.7159481 219.10045815 C-7.91858621 219.124849 -11.12029517 219.12388415 -14.32299805 219.11694336 C-15.73150024 219.13615845 -15.73150024 219.13615845 -17.16845703 219.15576172 C-25.34433629 219.09137516 -31.82109491 216.39663369 -37.73046875 210.64697266 C-41.89113477 204.94226344 -43.85786009 200.52874689 -43.85072327 193.42047119 C-43.85209793 192.36320328 -43.8534726 191.30593536 -43.85488892 190.21662903 C-43.85129364 189.06216782 -43.84769836 187.9077066 -43.84399414 186.71826172 C-43.84414017 185.49848129 -43.84428619 184.27870087 -43.84443665 183.0219574 C-43.84385955 179.68136744 -43.83884583 176.34083936 -43.83186269 173.00026035 C-43.82560946 169.50756068 -43.82502379 166.01486017 -43.82383728 162.52215576 C-43.82072978 155.91011994 -43.8125242 149.29810065 -43.80248779 142.68607211 C-43.79130863 135.15770892 -43.78581166 127.62934494 -43.78079236 120.10097551 C-43.77034112 104.61629805 -43.75255136 89.13163814 -43.73046875 73.64697266 C-49.67046875 73.64697266 -55.61046875 73.64697266 -61.73046875 73.64697266 C-61.84546501 68.61013639 -61.94492635 63.57787627 -62.00512695 58.54077148 C-62.03022589 56.82870021 -62.06431304 55.11673562 -62.10766602 53.4050293 C-62.16852614 50.9398362 -62.19672307 48.4760628 -62.21875 46.01025391 C-62.25745964 44.86777946 -62.25745964 44.86777946 -62.29695129 43.70222473 C-62.2988984 39.98815679 -61.83490197 37.81276716 -59.84570312 34.65478516 C-55.35645551 31.76140174 -51.63063799 32.01782288 -46.3984375 32.15869141 C-45.40669022 32.16576614 -44.41494293 32.17284088 -43.3931427 32.18013 C-40.23397533 32.20805832 -37.07659793 32.27079546 -33.91796875 32.33447266 C-31.7728121 32.35955748 -29.6276276 32.38237032 -27.48242188 32.40283203 C-22.23116291 32.45787939 -16.98094372 32.54148956 -11.73046875 32.64697266 C-11.75665283 31.85524658 -11.78283691 31.06352051 -11.80981445 30.24780273 C-11.91390997 26.65189548 -11.97883775 23.05630535 -12.04296875 19.45947266 C-12.08486328 18.21359375 -12.12675781 16.96771484 -12.16992188 15.68408203 C-12.18603516 14.48203125 -12.20214844 13.27998047 -12.21875 12.04150391 C-12.24493408 10.93653564 -12.27111816 9.83156738 -12.2980957 8.69311523 C-11.0298667 1.88722564 -6.39154317 0.02151356 0 0 Z M-2.73046875 10.64697266 C-2.73046875 17.90697266 -2.73046875 25.16697266 -2.73046875 32.64697266 C17.06953125 32.64697266 36.86953125 32.64697266 57.26953125 32.64697266 C57.26953125 25.38697266 57.26953125 18.12697266 57.26953125 10.64697266 C55.53885426 8.91629566 53.20464321 9.51940736 50.84765625 9.51757812 C49.68975586 9.51442596 48.53185547 9.5112738 47.33886719 9.50802612 C46.07848633 9.51005035 44.81810547 9.51207458 43.51953125 9.51416016 C41.59415527 9.51272507 41.59415527 9.51272507 39.62988281 9.51126099 C36.90949301 9.50978435 34.189136 9.51193747 31.46875 9.51660156 C27.97468456 9.52229885 24.48069592 9.51901966 20.9866333 9.5130291 C17.66425972 9.50855511 14.34190702 9.51168381 11.01953125 9.51416016 C9.75915039 9.51213593 8.49876953 9.51011169 7.20019531 9.50802612 C6.04229492 9.51117828 4.88439453 9.51433044 3.69140625 9.51757812 C2.15371582 9.51877151 2.15371582 9.51877151 0.58496094 9.51998901 C-1.69253129 9.38659367 -1.69253129 9.38659367 -2.73046875 10.64697266 Z M-52.73046875 42.64697266 C-52.73046875 49.90697266 -52.73046875 57.16697266 -52.73046875 64.64697266 C0.06953125 64.64697266 52.86953125 64.64697266 107.26953125 64.64697266 C107.26953125 57.38697266 107.26953125 50.12697266 107.26953125 42.64697266 C105.44959083 40.82703223 102.60331139 41.52078189 100.15771484 41.51998901 C99.18968965 41.51764903 99.18968965 41.51764903 98.20210838 41.51526177 C96.0240391 41.51125016 93.84603864 41.51444202 91.66796875 41.51757812 C90.1128129 41.51622415 88.55765736 41.51444425 87.00250244 41.51226807 C82.76708445 41.50769322 78.53169071 41.5094835 74.29627228 41.51264715 C69.87378369 41.51517049 65.45129725 41.51283329 61.02880859 41.51126099 C53.60058213 41.50943921 46.17236559 41.5118458 38.74414062 41.51660156 C30.14347984 41.5220442 21.54284275 41.52028155 12.94218254 41.51477516 C5.57150506 41.51024424 -1.79916526 41.50959337 -9.16984367 41.51221383 C-13.57801579 41.51377672 -17.98617674 41.51397003 -22.39434814 41.51067734 C-26.53765223 41.50779894 -30.68092562 41.50977373 -34.82422638 41.51557159 C-36.34928588 41.51689936 -37.87434794 41.5165048 -39.39940643 41.51430893 C-41.47252387 41.51159806 -43.54554137 41.51497773 -45.61865234 41.51998901 C-46.78157806 41.52036604 -47.94450378 41.52074306 -49.14266968 41.52113152 C-51.66055739 41.35308558 -51.66055739 41.35308558 -52.73046875 42.64697266 Z M-34.73046875 75.64697266 C-34.79234375 94.76634766 -34.85421875 113.88572266 -34.91796875 133.58447266 C-34.94528076 139.61075928 -34.97259277 145.6370459 -35.00073242 151.84594727 C-35.0107687 157.27051288 -35.0107687 157.27051288 -35.01679993 162.69508362 C-35.02139216 165.10220505 -35.03191325 167.50931979 -35.04719543 169.91639709 C-35.06923886 173.57272239 -35.07218392 177.22862771 -35.07104492 180.88500977 C-35.08183925 181.94872519 -35.09263357 183.01244062 -35.103755 184.10838985 C-35.07538304 190.93821374 -34.76689485 198.13628295 -30.10289288 203.52876186 C-23.97414675 209.40549677 -16.92605318 209.94667232 -8.81689453 209.92163086 C-7.95250763 209.92674179 -7.08812073 209.93185272 -6.19754028 209.93711853 C-3.35688234 209.95095127 -0.51646876 209.95006245 2.32421875 209.94775391 C4.31047657 209.95164445 6.29673357 209.95597986 8.2829895 209.96073914 C12.4404775 209.96818788 16.59788056 209.96791993 20.75537109 209.96264648 C26.06685147 209.95685525 31.37798275 209.97378117 36.68940544 209.99699116 C40.79023246 210.0117675 44.89097618 210.01259486 48.9918251 210.00948143 C50.9493186 210.00999273 52.906817 210.01519436 54.86428452 210.02529335 C57.60880561 210.03771557 60.35265653 210.03083152 63.09716797 210.01928711 C63.89537964 210.02693085 64.69359131 210.03457458 65.51599121 210.04244995 C71.71250866 209.98522466 78.31523959 209.18830956 83.16143608 205.01952076 C89.73406302 198.1196523 89.55727948 190.14480833 89.49658203 181.11206055 C89.49694364 179.37120635 89.49694364 179.37120635 89.49731255 177.59518337 C89.49582451 173.85325282 89.48061483 170.11152363 89.46484375 166.36962891 C89.46190174 164.05350846 89.45986227 161.73738669 89.45874023 159.42126465 C89.44827118 150.85064699 89.42034867 142.28005783 89.39453125 133.70947266 C89.35328125 114.54884766 89.31203125 95.38822266 89.26953125 75.64697266 C48.34953125 75.64697266 7.42953125 75.64697266 -34.73046875 75.64697266 Z " fill="#43536A" transform="translate(61.73046875,-0.64697265625)"/>
<path d="M0 0 C2.97 0 5.94 0 9 0 C9 35.64 9 71.28 9 108 C6.03 108 3.06 108 0 108 C0 72.36 0 36.72 0 0 Z " fill="#445469" transform="translate(119,84)"/>
<path d="M0 0 C2.97 0 5.94 0 9 0 C9 35.64 9 71.28 9 108 C6.03 108 3.06 108 0 108 C0 72.36 0 36.72 0 0 Z " fill="#445469" transform="translate(50,84)"/>
<path d="M0 0 C2.97 0 5.94 0 9 0 C9 35.64 9 71.28 9 108 C6.03 108 3.06 108 0 108 C0 72.36 0 36.72 0 0 Z " fill="#445469" transform="translate(84,83)"/>
</svg>
