<?xml version="1.0" encoding="UTF-8"?>
<svg version="1.1" xmlns="http://www.w3.org/2000/svg" width="140" height="227">
<path d="M0 0 C8.6106553 4.19974741 17.12328428 8.53611202 25.5 13.1875 C26.22815918 13.59081543 26.95631836 13.99413086 27.70654297 14.40966797 C32.56568265 17.12843266 37.30430296 20.00831011 42 23 C40.65782029 26.51810193 39.1116391 29.7989345 37.3125 33.10546875 C36.51996826 34.56581543 36.51996826 34.56581543 35.71142578 36.05566406 C35.14665527 37.08916992 34.58188477 38.12267578 34 39.1875 C33.41331543 40.26612305 32.82663086 41.34474609 32.22216797 42.45605469 C28.50456583 49.27959138 24.73903255 56.07496583 20.94677734 62.85717773 C16.7566627 70.38189057 12.70652102 77.98144197 8.64855957 85.57788086 C3.94624594 94.38008485 -0.79247313 103.16109693 -5.58374023 111.9152832 C-8.12812318 116.56515687 -10.66190238 121.22026904 -13.17578125 125.88671875 C-13.99248291 127.40120605 -13.99248291 127.40120605 -14.82568359 128.94628906 C-15.83442407 130.81831092 -16.8415271 132.6912171 -17.84619141 134.56542969 C-18.88735624 136.49619079 -19.94801571 138.41649352 -21.02172852 140.3293457 C-22.55132338 143.09096654 -23.89578293 145.90787812 -25.22631836 148.77026367 C-34.60197718 167.97735162 -49.44653356 181.69322853 -64.58978271 196.39300537 C-67.42235491 199.15371039 -70.23153606 201.93760941 -73.04020977 204.72259426 C-76.39790718 208.05086555 -79.76595178 211.36856541 -83.13671875 214.68359375 C-84.09573876 215.62788144 -84.09573876 215.62788144 -85.07413292 216.59124565 C-86.86765277 218.35239316 -88.66810566 220.10608332 -90.47143555 221.85717773 C-91.27158081 222.64454315 -91.27158081 222.64454315 -92.08789062 223.44781494 C-95.76963359 227 -95.76963359 227 -98 227 C-95.02623069 211.73908364 -91.82865069 196.52705362 -88.50661087 181.33853149 C-87.73327066 177.80197997 -86.96636949 174.26429813 -86.21435547 170.72314453 C-85.47195184 167.22794219 -84.71347008 163.73657543 -83.94405746 160.2472229 C-83.52261039 158.31774793 -83.11686467 156.384864 -82.71170044 154.4519043 C-80.88396502 146.26353931 -78.08682571 139.31654877 -74 132 C-73.24422165 130.62857597 -73.24422165 130.62857597 -72.47317505 129.22944641 C-71.04620986 126.66049645 -69.58852453 124.11078723 -68.125 121.5625 C-63.05494249 112.66294668 -58.06266941 103.72341667 -53.125 94.75 C-51.7631509 92.27597005 -50.40116319 89.80201645 -49.0390625 87.328125 C-48.70186188 86.71561386 -48.36466125 86.10310272 -48.01724243 85.47203064 C-43.91658823 78.02710399 -39.78178041 70.60118421 -35.64941406 63.17382812 C-31.7213543 56.10950647 -27.8122678 49.035048 -23.91430664 41.95410156 C-18.17462818 31.52766717 -12.41017225 21.11640247 -6.5625 10.75 C-6.01255371 9.77321289 -5.46260742 8.79642578 -4.89599609 7.79003906 C-4.39535645 6.90541992 -3.8947168 6.02080078 -3.37890625 5.109375 C-2.9413501 4.33561523 -2.50379395 3.56185547 -2.05297852 2.76464844 C-1 1 -1 1 0 0 Z " fill="#9FA0A1" transform="translate(98,0)"/>
<path d="M0 0 C8.6106553 4.19974741 17.12328428 8.53611202 25.5 13.1875 C26.22815918 13.59081543 26.95631836 13.99413086 27.70654297 14.40966797 C32.56568265 17.12843266 37.30430296 20.00831011 42 23 C40.65782029 26.51810193 39.1116391 29.7989345 37.3125 33.10546875 C36.51996826 34.56581543 36.51996826 34.56581543 35.71142578 36.05566406 C35.14665527 37.08916992 34.58188477 38.12267578 34 39.1875 C33.41331543 40.26612305 32.82663086 41.34474609 32.22216797 42.45605469 C28.50456583 49.27959138 24.73903255 56.07496583 20.94677734 62.85717773 C16.7566627 70.38189057 12.70652102 77.98144197 8.64855957 85.57788086 C3.94624594 94.38008485 -0.79247313 103.16109693 -5.58374023 111.9152832 C-8.12812318 116.56515687 -10.66190238 121.22026904 -13.17578125 125.88671875 C-13.99248291 127.40120605 -13.99248291 127.40120605 -14.82568359 128.94628906 C-15.83442407 130.81831092 -16.8415271 132.6912171 -17.84619141 134.56542969 C-18.88735624 136.49619079 -19.94801571 138.41649352 -21.02172852 140.3293457 C-22.55132338 143.09096654 -23.89578293 145.90787812 -25.22631836 148.77026367 C-34.60197718 167.97735162 -49.44653356 181.69322853 -64.58978271 196.39300537 C-67.42235491 199.15371039 -70.23153606 201.93760941 -73.04020977 204.72259426 C-76.39790718 208.05086555 -79.76595178 211.36856541 -83.13671875 214.68359375 C-84.09573876 215.62788144 -84.09573876 215.62788144 -85.07413292 216.59124565 C-86.86765277 218.35239316 -88.66810566 220.10608332 -90.47143555 221.85717773 C-91.27158081 222.64454315 -91.27158081 222.64454315 -92.08789062 223.44781494 C-95.76963359 227 -95.76963359 227 -98 227 C-95.02623069 211.73908364 -91.82865069 196.52705362 -88.50661087 181.33853149 C-87.73327066 177.80197997 -86.96636949 174.26429813 -86.21435547 170.72314453 C-85.47195184 167.22794219 -84.71347008 163.73657543 -83.94405746 160.2472229 C-83.52261039 158.31774793 -83.11686467 156.384864 -82.71170044 154.4519043 C-80.88396502 146.26353931 -78.08682571 139.31654877 -74 132 C-73.24422165 130.62857597 -73.24422165 130.62857597 -72.47317505 129.22944641 C-71.04620986 126.66049645 -69.58852453 124.11078723 -68.125 121.5625 C-63.05494249 112.66294668 -58.06266941 103.72341667 -53.125 94.75 C-51.7631509 92.27597005 -50.40116319 89.80201645 -49.0390625 87.328125 C-48.70186188 86.71561386 -48.36466125 86.10310272 -48.01724243 85.47203064 C-43.91658823 78.02710399 -39.78178041 70.60118421 -35.64941406 63.17382812 C-31.7213543 56.10950647 -27.8122678 49.035048 -23.91430664 41.95410156 C-18.17462818 31.52766717 -12.41017225 21.11640247 -6.5625 10.75 C-6.01255371 9.77321289 -5.46260742 8.79642578 -4.89599609 7.79003906 C-4.39535645 6.90541992 -3.8947168 6.02080078 -3.37890625 5.109375 C-2.9413501 4.33561523 -2.50379395 3.56185547 -2.05297852 2.76464844 C-1 1 -1 1 0 0 Z M1 4 C-3.41242308 10.49301403 -7.08719008 17.44288033 -10.875 24.3125 C-11.53557653 25.5066381 -12.19638875 26.70064585 -12.85742188 27.89453125 C-14.22714518 30.3688024 -15.59586479 32.84362465 -16.96386719 35.31884766 C-20.13310493 41.051157 -23.31740373 46.77510054 -26.5 52.5 C-27.75006919 54.74996156 -29.000069 56.99996167 -30.25 59.25 C-32.75 63.75 -35.25 68.25 -37.75 72.75 C-38.6783667 74.4211084 -38.6783667 74.4211084 -39.62548828 76.12597656 C-40.87375009 78.37278279 -42.12212224 80.61952773 -43.37060547 82.86621094 C-46.52311379 88.53957447 -49.67361316 94.21403722 -52.8203125 99.890625 C-53.44993896 101.02435547 -54.07956543 102.15808594 -54.72827148 103.32617188 C-55.99107911 105.60569487 -57.24842519 107.88825216 -58.50024414 110.17382812 C-61.37996727 115.40955056 -64.30885422 120.5573221 -67.55078125 125.578125 C-76.7337199 140.06670345 -80.34579816 154.32320317 -83.59196472 170.93408203 C-84.71425908 176.67210793 -85.95724436 182.37497635 -87.26171875 188.07421875 C-87.44978592 188.89873032 -87.63785309 189.72324188 -87.83161926 190.57273865 C-88.20480639 192.20778503 -88.57826149 193.84277027 -88.95199585 195.47769165 C-89.13283722 196.26880341 -89.31367859 197.05991516 -89.5 197.875 C-89.67834381 198.65475189 -89.85668762 199.43450378 -90.04043579 200.23788452 C-90.54292647 202.44644636 -91.03806734 204.65653118 -91.53125 206.8671875 C-91.81548828 208.12644043 -92.09972656 209.38569336 -92.39257812 210.68310547 C-92.91959757 213.56095364 -93.13012307 216.08815031 -93 219 C-84.07099956 211.53597974 -75.78720522 203.37396958 -67.4788065 195.23449612 C-64.78058926 192.59213252 -62.07188904 189.96338816 -59.33032227 187.3659668 C-43.93082719 172.7552429 -32.97278596 158.29333845 -23.59838867 139.21138 C-21.16928009 134.33097083 -18.52149525 129.57727953 -15.875 124.8125 C-10.94849293 115.78793514 -6.081385 106.73135085 -1.21264648 97.67553711 C3.00494879 89.83505366 7.25376015 82.01224099 11.5246582 74.20068359 C14.13420987 69.42612873 16.73448721 64.64682867 19.3203125 59.859375 C20.15622925 58.31213745 20.15622925 58.31213745 21.0090332 56.73364258 C22.11539906 54.68457256 23.22072979 52.63494325 24.32495117 50.5847168 C26.7820645 46.03585319 29.26225426 41.50806494 31.85546875 37.03515625 C32.28448486 36.29249512 32.71350098 35.54983398 33.15551758 34.78466797 C33.94437045 33.42806214 34.74184703 32.0764187 35.54956055 30.73095703 C36.44250988 29.19579937 37.23217246 27.60140826 38 26 C36.65339476 21.96018427 34.9454731 21.57752596 31.2421875 19.56640625 C30.66091095 19.24719711 30.0796344 18.92798798 29.48074341 18.59910583 C27.61685088 17.5780257 25.74622685 16.57006518 23.875 15.5625 C22.6375436 14.88824491 21.40055862 14.21312387 20.1640625 13.53710938 C17.80704134 12.24894968 15.44710914 10.96679269 13.08496094 9.68798828 C10.61727522 8.33775252 8.18148479 6.95403109 5.7578125 5.52734375 C3.23381824 3.83850492 3.23381824 3.83850492 1 4 Z " fill="#797979" transform="translate(98,0)"/>
<path d="M0 0 C8.8794871 4.34059295 17.64304739 8.69654931 26 14 C24.60919475 17.13738154 22.98977796 19.25475281 20.56005859 21.66699219 C19.85948334 22.36741638 19.15890808 23.06784058 18.43710327 23.78948975 C17.68184357 24.53442688 16.92658386 25.27936401 16.1484375 26.046875 C15.37440582 26.81807678 14.60037415 27.58927856 13.80288696 28.3838501 C11.33158077 30.84396856 8.85340817 33.29703848 6.375 35.75 C4.69745948 37.41750894 3.02037055 39.08547232 1.34375 40.75390625 C-2.76560919 44.8412237 -6.88062647 48.92277696 -11 53 C-12.32732574 50.34534853 -11.77071893 49.18376786 -11.11962891 46.30664062 C-10.9025528 45.33223022 -10.68547668 44.35781982 -10.46182251 43.35388184 C-10.21918671 42.29866333 -9.9765509 41.24344482 -9.7265625 40.15625 C-9.48336273 39.07621704 -9.24016296 37.99618408 -8.98959351 36.88342285 C-8.47318004 34.59619223 -7.95344068 32.30971042 -7.43066406 30.02392578 C-6.62871987 26.51627049 -5.83691394 23.00644756 -5.046875 19.49609375 C-4.5448651 17.27851122 -4.04228019 15.06105877 -3.5390625 12.84375 C-3.30047516 11.78853149 -3.06188782 10.73331299 -2.81607056 9.64611816 C-2.59269012 8.67170776 -2.36930969 7.69729736 -2.13916016 6.69335938 C-1.94295074 5.83335327 -1.74674133 4.97334717 -1.54458618 4.08728027 C-1 2 -1 2 0 0 Z " fill="#C2C2C2" transform="translate(24,153)"/>
<path d="M0 0 C0.99 0.33 1.98 0.66 3 1 C1.62595793 4.60528468 0.02707054 7.97060125 -1.80078125 11.3671875 C-2.35878418 12.40528564 -2.91678711 13.44338379 -3.49169922 14.51293945 C-4.39299561 16.17715942 -4.39299561 16.17715942 -5.3125 17.875 C-5.93914551 19.03539795 -6.56579102 20.1957959 -7.21142578 21.39135742 C-11.70086943 29.68543236 -16.30275821 37.91263093 -20.96655273 46.10986328 C-25.33154651 53.78937071 -29.6153131 61.5118202 -33.875 69.25 C-34.55287632 70.48088711 -35.23077347 71.71176276 -35.90869141 72.94262695 C-36.92734041 74.79222767 -37.94597845 76.64183439 -38.96450806 78.49150085 C-48.83323289 96.40953118 -58.79021418 114.27359493 -69 132 C-69.99 132 -70.98 132 -72 132 C-70.69249093 127.72300843 -69.04660084 123.99145305 -66.8671875 120.08984375 C-66.23417725 118.95015137 -65.60116699 117.81045898 -64.94897461 116.63623047 C-64.2576995 115.40329241 -63.56637321 114.17038305 -62.875 112.9375 C-62.15514798 111.64499036 -61.43583796 110.35217872 -60.71704102 109.05908203 C-59.22341966 106.37302911 -57.72747641 103.6882891 -56.22998047 101.00439453 C-53.1088702 95.40580472 -50.01960203 89.7897208 -46.92849731 84.17453003 C-39.61668828 70.89717828 -32.25754766 57.64619666 -24.88964844 44.39990234 C-22.92671555 40.86814479 -20.96685243 37.33469888 -19.0078125 33.80078125 C-6.38579237 11.03742388 -6.38579237 11.03742388 0 0 Z " fill="#385B98" transform="translate(118,23)"/>
<path d="M0 0 C0.99 0.33 1.98 0.66 3 1 C1.62595793 4.60528468 0.02707054 7.97060125 -1.80078125 11.3671875 C-2.35902588 12.40568848 -2.91727051 13.44418945 -3.49243164 14.51416016 C-4.0930542 15.6232373 -4.69367676 16.73231445 -5.3125 17.875 C-5.93697021 19.03177246 -6.56144043 20.18854492 -7.20483398 21.38037109 C-11.75600892 29.79095449 -16.43135204 38.12771401 -21.16430664 46.43725586 C-25.11580211 53.39008492 -28.95551447 60.3978691 -32.75 67.4375 C-36.57484868 74.5334011 -40.42456363 81.60902866 -44.40063477 88.62133789 C-46.8496631 92.94409715 -49.2691528 97.28237096 -51.67578125 101.62890625 C-52.00421021 102.22188004 -52.33263916 102.81485382 -52.67102051 103.42579651 C-54.31509539 106.39448964 -55.95743634 109.36410864 -57.59716797 112.33520508 C-59.38526407 115.56419644 -61.18913805 118.78373078 -63 122 C-63.5563916 123.00450195 -64.1127832 124.00900391 -64.68603516 125.04394531 C-65.20858887 125.96014648 -65.73114258 126.87634766 -66.26953125 127.8203125 C-66.95366089 129.03485107 -66.95366089 129.03485107 -67.65161133 130.27392578 C-68.31906372 131.12833252 -68.31906372 131.12833252 -69 132 C-69.99 132 -70.98 132 -72 132 C-70.68601607 127.69725263 -69.02216512 123.94551425 -66.83203125 120.01953125 C-66.19386475 118.86952637 -65.55569824 117.71952148 -64.89819336 116.53466797 C-64.20304752 115.29389753 -63.50781408 114.05317617 -62.8125 112.8125 C-62.09010271 111.51474912 -61.36818652 110.21673032 -60.64672852 108.91845703 C-59.1613782 106.24735288 -57.6732266 103.57784077 -56.18261719 100.90966797 C-54.15981161 97.28825098 -52.14503474 93.66246531 -50.1328125 90.03515625 C-45.80962069 82.24215387 -41.47754581 74.45410289 -37.14550781 66.66601562 C-35.28411406 63.31922771 -33.42316277 59.97219436 -31.5625 56.625 C-30.64573486 54.97600708 -30.64573486 54.97600708 -29.71044922 53.29370117 C-26.39031339 47.31736984 -23.07958547 41.33603939 -19.78125 35.34765625 C-19.25131691 34.385784 -19.25131691 34.385784 -18.7106781 33.40447998 C-17.01523524 30.3266821 -15.32105516 27.24820124 -13.62915039 24.16845703 C-9.16813972 16.06418117 -4.61088937 8.01956462 0 0 Z " fill="#385B98" transform="translate(100,13)"/>
<path d="M0 0 C0.99 0 1.98 0 3 0 C1.31880489 6.1162497 -1.77513399 11.4152174 -4.8125 16.9375 C-5.39217529 17.9994458 -5.97185059 19.0613916 -6.5690918 20.15551758 C-10.94667086 28.1490231 -15.41557549 36.08924767 -19.91796875 44.01293945 C-24.27325926 51.68577682 -28.55582257 59.39721443 -32.8125 67.125 C-33.14621613 67.73064789 -33.47993225 68.33629578 -33.82376099 68.96029663 C-36.91163067 74.56517168 -39.99559806 80.17219017 -43.07763672 85.78027344 C-45.13358286 89.52101323 -47.1909606 93.26096192 -49.25 97 C-49.74628403 97.90125107 -49.74628403 97.90125107 -50.25259399 98.82070923 C-56.3842505 109.9480137 -62.64547381 120.99854352 -69 132 C-69.99 131.67 -70.98 131.34 -72 131 C-70.67977581 127.54935291 -69.17793551 124.31759724 -67.41796875 121.0703125 C-66.90492187 120.12220703 -66.391875 119.17410156 -65.86328125 118.19726562 C-65.31027344 117.18341797 -64.75726563 116.16957031 -64.1875 115.125 C-63.61 114.06216797 -63.0325 112.99933594 -62.4375 111.90429688 C-58.0024948 103.77024721 -53.45944133 95.70095648 -48.87768555 87.64892578 C-44.99711979 80.81209882 -41.22554063 73.92237787 -37.5 67 C-32.8079619 58.28501138 -28.00463064 49.64276397 -23.11010742 41.04003906 C-17.71730244 31.54505664 -12.45454934 21.97958444 -7.20385742 12.40551758 C-6.87211517 11.80175797 -6.54037292 11.19799835 -6.19857788 10.57594299 C-5.29449603 8.93044048 -4.39194798 7.28409553 -3.48950195 5.63769531 C-2 3 -2 3 0 0 Z " fill="#385B98" transform="translate(109,19)"/>
<path d="M0 0 C0.99 0.33 1.98 0.66 3 1 C-5.94424408 19.37488211 -15.8215675 37.24795423 -25.91723633 55.01098633 C-30.29617392 62.72476855 -34.5973234 70.47982255 -38.875 78.25 C-39.54914279 79.47412707 -40.22329643 80.69824817 -40.89746094 81.92236328 C-41.91229769 83.7651374 -42.92712821 85.60791492 -43.94186401 87.45074463 C-47.31987549 93.58394513 -50.70767665 99.71168736 -54.10430908 105.83459473 C-55.02542279 107.49563868 -55.94511439 109.15747101 -56.86474609 110.81933594 C-60.814995 117.93623972 -64.8719689 124.984774 -69 132 C-69.99 131.67 -70.98 131.34 -72 131 C-65.86560232 118.20203935 -58.98187861 105.84346856 -52.05152893 93.46360779 C-48.67572573 87.42979479 -45.3369098 81.37580745 -42.00192261 75.31936646 C-34.6712669 62.00781026 -27.29851962 48.71988404 -19.91162109 35.43945312 C-17.88275642 31.7890514 -15.8570713 28.13689906 -13.83203125 24.484375 C-12.80354174 22.63011136 -11.77497205 20.77589222 -10.74636841 18.92169189 C-9.77492745 17.16995019 -8.80432279 15.4177448 -7.83374023 13.66552734 C-7.24407471 12.60285645 -6.65440918 11.54018555 -6.046875 10.4453125 C-5.52963867 9.51219238 -5.01240234 8.57907227 -4.47949219 7.61767578 C-3.02887693 5.05109215 -1.52855394 2.52080316 0 0 Z " fill="#385B98" transform="translate(126,28)"/>
<path d="M0 0 C2.64 1.32 5.28 2.64 8 4 C7.01 4.495 7.01 4.495 6 5 C3.875 4.0625 3.875 4.0625 2 3 C-0.232319 7.87405617 -1.21699835 12.98109436 -2.34765625 18.19140625 C-2.56441513 19.17366684 -2.78117401 20.15592743 -3.00450134 21.16795349 C-3.69450545 24.29860397 -4.3786599 27.43049791 -5.0625 30.5625 C-5.7511896 33.69778044 -6.44105806 36.83279942 -7.13121033 39.96775818 C-7.55971941 41.91629119 -7.98713794 43.86506442 -8.41334534 45.81410217 C-8.60702194 46.69859543 -8.80069855 47.58308868 -9.00024414 48.49438477 C-9.16964005 49.26984146 -9.33903595 50.04529816 -9.51356506 50.84425354 C-9.67408859 51.55564987 -9.83461212 52.2670462 -10 53 C-10.14436996 53.73230331 -10.28873993 54.46460663 -10.43748474 55.21910095 C-10.62311478 55.80679764 -10.80874481 56.39449432 -11 57 C-11.99 57.495 -11.99 57.495 -13 58 C-11.45014622 47.19184753 -9.01036515 36.57267495 -6.6315918 25.92358398 C-5.93088666 22.78285742 -5.23764233 19.64054307 -4.54492188 16.49804688 C-4.10200586 14.50510975 -3.65866244 12.51226755 -3.21484375 10.51953125 C-3.00754135 9.57801712 -2.80023895 8.63650299 -2.58665466 7.66645813 C-2.39297806 6.80433212 -2.19930145 5.94220612 -1.99975586 5.05395508 C-1.745662 3.91244743 -1.745662 3.91244743 -1.48643494 2.74787903 C-1 1 -1 1 0 0 Z " fill="#3E3E3E" transform="translate(23,151)"/>
<path d="M0 0 C2.64 1.32 5.28 2.64 8 4 C7.01 4.495 7.01 4.495 6 5 C3.875 4.0625 3.875 4.0625 2 3 C1.01 5.64 0.02 8.28 -1 11 C-1.33 11 -1.66 11 -2 11 C-1.85957123 9.35369672 -1.71250671 7.70795821 -1.5625 6.0625 C-1.48128906 5.14597656 -1.40007813 4.22945312 -1.31640625 3.28515625 C-1 1 -1 1 0 0 Z " fill="#353535" transform="translate(23,151)"/>
</svg>
