<?xml version="1.0" encoding="UTF-8"?>
<svg version="1.1" xmlns="http://www.w3.org/2000/svg" width="228" height="273">
<path d="M0 0 C1.99280001 0.01023034 3.98561775 0.01740457 5.97843933 0.02172852 C11.32838214 0.04215591 16.67700584 0.10591498 22.02646637 0.17819214 C27.56353984 0.24581003 33.10081457 0.27385827 38.63818359 0.30664062 C50.85067031 0.38697494 63.06205001 0.52740179 75.27381134 0.68035889 C80.21162435 0.74080126 85.14951037 0.79413104 90.08740234 0.84765625 C110.19626533 1.06865087 130.30342503 1.35069318 150.41015625 1.71875 C151.14478327 5.02411094 151.54339827 8.10452421 151.58005619 11.48820972 C151.59871804 12.89301742 151.59871804 12.89301742 151.6177569 14.32620507 C151.62651691 15.34663311 151.63527691 16.36706115 151.64430237 17.41841125 C151.66395999 19.05415683 151.66395999 19.05415683 151.68401474 20.72294778 C151.72685417 24.38337794 151.76294098 28.04384363 151.79907227 31.7043457 C151.8283708 34.3257441 151.85808463 36.94713789 151.88818359 39.56852722 C151.95236582 45.2154929 152.01309456 50.86248723 152.07147408 56.50951576 C152.15588593 64.67415824 152.24551174 72.83873695 152.33640789 81.00330951 C152.48374141 94.24997026 152.62686142 107.49667305 152.76733398 120.7434082 C152.90379444 133.61094589 153.04224868 146.47845959 153.18334961 159.34594727 C153.19213412 160.14726308 153.20091863 160.9485789 153.20996934 161.77417701 C153.27868614 168.04104569 153.34751853 174.3079131 153.41638744 180.57478011 C153.75389181 211.2893713 154.08131406 242.00406248 154.41015625 272.71875 C79.50015625 272.71875 4.59015625 272.71875 -72.58984375 272.71875 C-73.37359375 237.2025 -74.15734375 201.68625 -74.96484375 165.09375 C-75.3107959 153.95415527 -75.65674805 142.81456055 -76.01318359 131.33740234 C-76.18481445 117.54418945 -76.18481445 117.54418945 -76.21670532 111.05020142 C-76.25161482 106.58763553 -76.3915643 102.1428951 -76.60171509 97.68521118 C-78.40149238 57.76755816 -78.40149238 57.76755816 -64.1585083 41.29815674 C-55.78826872 32.15707082 -46.44263546 24.13523396 -36.74370599 16.44841504 C-29.6282239 10.76084052 -29.6282239 10.76084052 -23.81420898 3.82617188 C-18.02363725 -1.96834901 -7.59737306 -0.13600127 0 0 Z " fill="#D8D8D8" transform="translate(73.58984375,0.28125)"/>
<path d="M0 0 C1.99280001 0.01023034 3.98561775 0.01740457 5.97843933 0.02172852 C11.32838214 0.04215591 16.67700584 0.10591498 22.02646637 0.17819214 C27.56353984 0.24581003 33.10081457 0.27385827 38.63818359 0.30664062 C50.85067031 0.38697494 63.06205001 0.52740179 75.27381134 0.68035889 C80.21162435 0.74080126 85.14951037 0.79413104 90.08740234 0.84765625 C110.19626533 1.06865087 130.30342503 1.35069318 150.41015625 1.71875 C151.14478327 5.02411094 151.54339827 8.10452421 151.58005619 11.48820972 C151.59871804 12.89301742 151.59871804 12.89301742 151.6177569 14.32620507 C151.62651691 15.34663311 151.63527691 16.36706115 151.64430237 17.41841125 C151.66395999 19.05415683 151.66395999 19.05415683 151.68401474 20.72294778 C151.72685417 24.38337794 151.76294098 28.04384363 151.79907227 31.7043457 C151.8283708 34.3257441 151.85808463 36.94713789 151.88818359 39.56852722 C151.95236582 45.2154929 152.01309456 50.86248723 152.07147408 56.50951576 C152.15588593 64.67415824 152.24551174 72.83873695 152.33640789 81.00330951 C152.48374141 94.24997026 152.62686142 107.49667305 152.76733398 120.7434082 C152.90379444 133.61094589 153.04224868 146.47845959 153.18334961 159.34594727 C153.19213412 160.14726308 153.20091863 160.9485789 153.20996934 161.77417701 C153.27868614 168.04104569 153.34751853 174.3079131 153.41638744 180.57478011 C153.75389181 211.2893713 154.08131406 242.00406248 154.41015625 272.71875 C79.50015625 272.71875 4.59015625 272.71875 -72.58984375 272.71875 C-73.37359375 237.2025 -74.15734375 201.68625 -74.96484375 165.09375 C-75.3107959 153.95415527 -75.65674805 142.81456055 -76.01318359 131.33740234 C-76.18481445 117.54418945 -76.18481445 117.54418945 -76.21670532 111.05020142 C-76.25161482 106.58763553 -76.3915643 102.1428951 -76.60171509 97.68521118 C-78.40149238 57.76755816 -78.40149238 57.76755816 -64.1585083 41.29815674 C-55.78826872 32.15707082 -46.44263546 24.13523396 -36.74370599 16.44841504 C-29.6282239 10.76084052 -29.6282239 10.76084052 -23.81420898 3.82617188 C-18.02363725 -1.96834901 -7.59737306 -0.13600127 0 0 Z M-17.58984375 3.71875 C-17.47550381 8.03159678 -17.34611808 12.34388813 -17.21484375 16.65625 C-17.18390625 17.82994141 -17.15296875 19.00363281 -17.12109375 20.21289062 C-16.72495665 32.79024366 -15.59791349 45.1178783 -14.58984375 57.71875 C-32.73984375 57.71875 -50.88984375 57.71875 -69.58984375 57.71875 C-69.58984375 127.67875 -69.58984375 197.63875 -69.58984375 269.71875 C3.01015625 269.71875 75.61015625 269.71875 150.41015625 269.71875 C150.42547181 244.89332696 150.42547181 244.89332696 150.24243164 220.07128906 C150.22420585 218.43833066 150.20612991 216.80537059 150.18818665 215.17240906 C150.14015257 210.84188954 150.08996983 206.51139771 150.03922963 202.18090916 C149.98520745 197.54418233 149.93299783 192.90743496 149.88047791 188.27069092 C149.7917773 180.46478818 149.70162762 172.65890322 149.6105957 164.85302734 C149.51880176 156.98032387 149.42860431 149.10760429 149.34008789 141.23486328 C148.82822509 95.72688494 148.26548653 50.22175943 147.41015625 4.71875 C131.72271882 4.54604401 116.03521912 4.3796645 100.34765625 4.21875 C99.19010582 4.20687275 98.03255539 4.1949955 96.83992767 4.18275833 C67.07156535 3.87889764 37.30526575 3.61769392 7.53515625 3.65625 C6.86912762 3.65710602 6.20309898 3.65796204 5.51688766 3.65884399 C-2.18538894 3.6695386 -9.88761966 3.68835791 -17.58984375 3.71875 Z " fill="#050505" transform="translate(73.58984375,0.28125)"/>
<path d="M0 0 C1.05593258 9.82119818 2.06745484 19.63606998 2.625 29.5 C2.66488037 30.1791748 2.70476074 30.85834961 2.74584961 31.55810547 C3.06609743 37.72490986 3 43.79891837 3 50 C-13.83 50 -30.66 50 -48 50 C-43.58724525 44.85178612 -39.14578449 39.86088249 -34.5 34.9375 C-33.80656494 34.20088135 -33.11312988 33.4642627 -32.39868164 32.70532227 C-27.2569359 27.26859191 -22.00018517 21.96108373 -16.68017578 16.69946289 C-13.06761142 13.11268002 -9.62632747 9.43590556 -6.328125 5.5546875 C-1.58291457 0 -1.58291457 0 0 0 Z " fill="#A3A3A3" transform="translate(54,6)"/>
<path d="M0 0 C36.96 0 73.92 0 112 0 C112 1.65 112 3.3 112 5 C75.04 5 38.08 5 0 5 C0 3.35 0 1.7 0 0 Z " fill="#181717" transform="translate(59,193)"/>
<path d="M0 0 C36.96 0 73.92 0 112 0 C112 1.65 112 3.3 112 5 C75.04 5 38.08 5 0 5 C0 3.35 0 1.7 0 0 Z " fill="#181717" transform="translate(59,165)"/>
<path d="M0 0 C36.96 0 73.92 0 112 0 C112 1.65 112 3.3 112 5 C75.04 5 38.08 5 0 5 C0 3.35 0 1.7 0 0 Z " fill="#181717" transform="translate(59,138)"/>
<path d="M0 0 C36.96 0 73.92 0 112 0 C112 1.65 112 3.3 112 5 C75.04 5 38.08 5 0 5 C0 3.35 0 1.7 0 0 Z " fill="#181717" transform="translate(59,112)"/>
</svg>
