<?xml version="1.0" encoding="UTF-8"?>
<svg version="1.1" xmlns="http://www.w3.org/2000/svg" width="184" height="252">
<path d="M0 0 C25.41 0 50.82 0 77 0 C77 83.16 77 166.32 77 252 C51.59 252 26.18 252 0 252 C0 168.84 0 85.68 0 0 Z " fill="#4472C4" transform="translate(107,0)"/>
<path d="M0 0 C25.41 0 50.82 0 77 0 C77 83.16 77 166.32 77 252 C51.59 252 26.18 252 0 252 C0 168.84 0 85.68 0 0 Z " fill="#4472C4" transform="translate(0,0)"/>
<path d="M0 0 C25.41 0 50.82 0 77 0 C77 83.16 77 166.32 77 252 C51.59 252 26.18 252 0 252 C0 168.84 0 85.68 0 0 Z M2 2 C2 83.84 2 165.68 2 250 C26.09 250 50.18 250 75 250 C75 168.16 75 86.32 75 2 C50.91 2 26.82 2 2 2 Z " fill="#2F528F" transform="translate(107,0)"/>
<path d="M0 0 C25.41 0 50.82 0 77 0 C77 83.16 77 166.32 77 252 C51.59 252 26.18 252 0 252 C0 168.84 0 85.68 0 0 Z M2 2 C2 83.84 2 165.68 2 250 C26.09 250 50.18 250 75 250 C75 168.16 75 86.32 75 2 C50.91 2 26.82 2 2 2 Z " fill="#2F528F" transform="translate(0,0)"/>
</svg>
