<?xml version="1.0" encoding="UTF-8"?>
<svg version="1.1" xmlns="http://www.w3.org/2000/svg" width="156" height="185">
<path d="M0 0 C3.98450484 1.59380194 7.28649165 3.22776601 10.953125 5.38671875 C11.52138 5.72020828 12.08963501 6.05369781 12.67510986 6.39729309 C14.53549917 7.49051658 16.39279148 8.58888298 18.25 9.6875 C19.55913303 10.45852313 20.8683794 11.22935384 22.17773438 12 C31.33123599 17.39408783 40.44526499 22.8529902 49.54638672 28.33496094 C58.06423573 33.45833729 66.6314149 38.4938725 75.21170044 43.51159668 C86.37165354 50.03800658 97.49997575 56.61587025 108.6171875 63.21484375 C113.67024669 66.21390678 118.73068642 69.20018036 123.79443359 72.18115234 C127.34272699 74.27232331 130.88624713 76.3714472 134.42773438 78.47412109 C136.1750493 79.51063573 137.92380063 80.54473196 139.67382812 81.57666016 C142.22546573 83.08389127 144.76980359 84.60274625 147.3125 86.125 C148.07828369 86.57464111 148.84406738 87.02428223 149.63305664 87.48754883 C154.88562566 90.65687697 154.88562566 90.65687697 156 94 C155.13503906 94.47566406 154.27007812 94.95132813 153.37890625 95.44140625 C143.83193184 100.73271969 134.46166613 106.29181384 125.11499023 111.92822266 C116.98577194 116.82420857 108.8174512 121.6483111 100.625 126.4375 C87.756123 133.96241236 74.92583949 141.55007888 62.10595703 149.15820312 C57.40730477 151.94445 52.70380221 154.72245932 48 157.5 C44.33313628 159.66633326 40.66654661 161.83313007 37 164 C36.44558228 164.32758301 35.89116455 164.65516602 35.31994629 164.99267578 C31.68638664 167.13967636 28.05350742 169.28782184 24.42138672 171.43725586 C22.67585529 172.46991396 20.92973327 173.50157359 19.18359375 174.53320312 C14.52869904 177.28887855 9.89117944 180.05077226 5.3359375 182.96875 C2 185 2 185 0 185 C0 123.95 0 62.9 0 0 Z " fill="#4371C3" transform="translate(0,0)"/>
<path d="M0 0 C3.98450484 1.59380194 7.28649165 3.22776601 10.953125 5.38671875 C11.52138 5.72020828 12.08963501 6.05369781 12.67510986 6.39729309 C14.53549917 7.49051658 16.39279148 8.58888298 18.25 9.6875 C19.55913303 10.45852313 20.8683794 11.22935384 22.17773438 12 C31.33123599 17.39408783 40.44526499 22.8529902 49.54638672 28.33496094 C58.06423573 33.45833729 66.6314149 38.4938725 75.21170044 43.51159668 C86.37165354 50.03800658 97.49997575 56.61587025 108.6171875 63.21484375 C113.67024669 66.21390678 118.73068642 69.20018036 123.79443359 72.18115234 C127.34272699 74.27232331 130.88624713 76.3714472 134.42773438 78.47412109 C136.1750493 79.51063573 137.92380063 80.54473196 139.67382812 81.57666016 C142.22546573 83.08389127 144.76980359 84.60274625 147.3125 86.125 C148.07828369 86.57464111 148.84406738 87.02428223 149.63305664 87.48754883 C154.88562566 90.65687697 154.88562566 90.65687697 156 94 C155.13503906 94.47566406 154.27007812 94.95132813 153.37890625 95.44140625 C143.83193184 100.73271969 134.46166613 106.29181384 125.11499023 111.92822266 C116.98577194 116.82420857 108.8174512 121.6483111 100.625 126.4375 C87.756123 133.96241236 74.92583949 141.55007888 62.10595703 149.15820312 C57.40730477 151.94445 52.70380221 154.72245932 48 157.5 C44.33313628 159.66633326 40.66654661 161.83313007 37 164 C36.44558228 164.32758301 35.89116455 164.65516602 35.31994629 164.99267578 C31.68638664 167.13967636 28.05350742 169.28782184 24.42138672 171.43725586 C22.67585529 172.46991396 20.92973327 173.50157359 19.18359375 174.53320312 C14.52869904 177.28887855 9.89117944 180.05077226 5.3359375 182.96875 C2 185 2 185 0 185 C0 123.95 0 62.9 0 0 Z M2 4 C2 62.41 2 120.82 2 181 C10.07834404 176.96082798 17.77026137 172.87863943 25.4375 168.1875 C27.633293 166.85671636 29.82994306 165.52734608 32.02734375 164.19921875 C32.59315155 163.8569223 33.15895935 163.51462585 33.74191284 163.16195679 C40.28906706 159.20831672 46.89479387 155.35555239 53.5 151.5 C63.56073461 145.62311478 73.57417513 139.67421187 83.5534668 133.65966797 C90.83103659 129.28125517 98.14738736 124.97399626 105.48251343 120.69314575 C116.26749972 114.39805186 127.00507487 108.03026674 137.6875 101.5625 C138.29953278 101.19320374 138.91156555 100.82390747 139.54214478 100.44342041 C141.26307461 99.40423087 142.981217 98.36042943 144.69921875 97.31640625 C146.16621216 96.42610718 146.16621216 96.42610718 147.6628418 95.51782227 C150.06692481 94.07167239 150.06692481 94.07167239 152 92 C151.25242432 91.56357178 150.50484863 91.12714355 149.73461914 90.67749023 C136.61776784 83.01556755 123.51122772 75.34049343 110.5 67.5 C100.96989634 61.75886323 91.39219276 56.10473006 81.78829956 50.48840332 C69.54685115 43.32952825 57.34515563 36.10547383 45.14990234 28.86816406 C37.61437855 24.39894781 30.07023562 19.94432742 22.52490234 15.49169922 C19.9798208 13.98807824 17.43700993 12.48067343 14.89453125 10.97265625 C13.32555154 10.04421894 11.75654273 9.1158308 10.1875 8.1875 C9.46933105 7.76033691 8.75116211 7.33317383 8.01123047 6.89306641 C5.18127637 4.89328021 5.18127637 4.89328021 2 4 Z " fill="#2F528F" transform="translate(0,0)"/>
</svg>
