<?xml version="1.0" encoding="UTF-8"?>
<svg version="1.1" xmlns="http://www.w3.org/2000/svg" width="180" height="190">
<path d="M0 0 C1.44632813 0.433125 1.44632813 0.433125 2.921875 0.875 C22.09447771 7.88224566 37.28252547 25.48950363 45.875 43.4375 C56.17824675 66.04732052 56.68845784 90.91082415 48.90234375 114.296875 C47.73602856 117.28580477 46.43165038 120.12900219 45 123 C44.45859375 124.10601562 43.9171875 125.21203125 43.359375 126.3515625 C32.76261067 146.43198566 14.55555976 161.53378039 -7.00830078 168.6640625 C-23.89241632 173.80535907 -40.8203418 174.72865661 -57.99609375 170.65625 C-61.13884621 169.85771223 -61.13884621 169.85771223 -65 170 C-67.97 176.435 -67.97 176.435 -71 183 C-71.66 183 -72.32 183 -73 183 C-74.19824219 181.34545898 -74.19824219 181.34545898 -75.546875 178.99609375 C-76.05516846 178.12138428 -76.56346191 177.2466748 -77.0871582 176.34545898 C-77.635896 175.38583252 -78.18463379 174.42620605 -78.75 173.4375 C-79.92437076 171.41584666 -81.10020034 169.39504017 -82.27734375 167.375 C-82.88819824 166.32441406 -83.49905273 165.27382812 -84.12841797 164.19140625 C-87.13122574 159.07104319 -90.21814373 154.00290156 -93.3125 148.9375 C-93.89821777 147.97763184 -94.48393555 147.01776367 -95.08740234 146.02880859 C-99.37513479 139.00909116 -103.6754829 131.99712239 -108 125 C-104.82251223 122.88167482 -102.83335715 122.3985975 -99.12329102 121.67138672 C-97.91516251 121.43128876 -96.707034 121.1911908 -95.46229553 120.94381714 C-94.14288186 120.68885137 -92.82341749 120.43414785 -91.50390625 120.1796875 C-90.15004635 119.91398687 -88.79628271 119.64779529 -87.44261169 119.38113403 C-84.60634766 118.82391278 -81.76923745 118.27130049 -78.93139648 117.72216797 C-75.29725906 117.01876685 -71.66502215 116.30608013 -68.03332615 115.59019279 C-65.23806881 115.03988272 -62.44206348 114.49345805 -59.64579582 113.94830704 C-58.30640071 113.68690845 -56.96719185 113.42455366 -55.62817574 113.16122055 C-53.75488941 112.79364184 -51.88051695 112.4316115 -50.00610352 112.06982422 C-48.94037613 111.86267792 -47.87464874 111.65553162 -46.77662659 111.44210815 C-44 111 -44 111 -40 111 C-40.65419099 116.06998019 -42.8546409 120.41990777 -45 125 C-30.5175364 125.49559761 -18.59300244 122.69891544 -7.125 113.3125 C1.41358718 105.23880868 5.20722454 94.56572975 5.95703125 83.078125 C6.11928716 71.45470168 0.97088357 60.24187719 -6.94921875 51.8125 C-16.60883676 43.2752376 -27.18849 38.43300319 -40.109375 39.1796875 C-51.51942527 40.51722928 -62.425893 45.12157658 -69.76953125 54.18359375 C-76.41252965 63.14814528 -78.80341032 71.01705159 -81 82 C-95.85 81.67 -110.7 81.34 -126 81 C-126 74.35166126 -125.97879182 69.11885866 -124.4375 62.875 C-124.26114014 62.15344727 -124.08478027 61.43189453 -123.90307617 60.68847656 C-117.8519642 37.39663879 -103.35952253 17.2050718 -82.54296875 4.93359375 C-56.15568894 -9.82317002 -27.88983763 -10.16045707 0 0 Z " fill="#2F5496" transform="translate(126,7)"/>
<path d="M0 0 C1 2 1 2 0.45709229 3.71437073 C0.14415222 4.39974411 -0.16878784 5.08511749 -0.49121094 5.79125977 C-1.01735992 6.95740562 -1.01735992 6.95740562 -1.55413818 8.14710999 C-1.94361633 8.98672775 -2.33309448 9.82634552 -2.734375 10.69140625 C-3.12820374 11.55185043 -3.52203247 12.41229462 -3.92779541 13.29881287 C-4.76459301 15.12056731 -5.60551581 16.94043161 -6.45019531 18.75854492 C-7.74349323 21.54846351 -9.01696952 24.3468452 -10.2890625 27.14648438 C-11.1029778 28.91200689 -11.91804392 30.67699943 -12.734375 32.44140625 C-13.30644684 33.70386925 -13.30644684 33.70386925 -13.89007568 34.99183655 C-14.25345032 35.76611496 -14.61682495 36.54039337 -14.99121094 37.33813477 C-15.30733337 38.02271255 -15.62345581 38.70729034 -15.94915771 39.41261292 C-17 41 -17 41 -20 42 C-21.2684375 41.566875 -21.2684375 41.566875 -22.5625 41.125 C-33.60636613 37.51064381 -45.02951461 38.80841285 -55.4375 43.8125 C-66.8491219 50.05744269 -74.31079906 59.41125745 -78 72 C-78.66 75.3 -79.32 78.6 -80 82 C-94.85 81.67 -109.7 81.34 -125 81 C-125 74.35166126 -124.97879182 69.11885866 -123.4375 62.875 C-123.26114014 62.15344727 -123.08478027 61.43189453 -122.90307617 60.68847656 C-116.8519642 37.39663879 -102.35952253 17.2050718 -81.54296875 4.93359375 C-57.61522276 -8.44770579 -25.35399399 -12.60047589 0 0 Z " fill="#B3C6E6" transform="translate(125,7)"/>
<path d="M0 0 C-0.62095306 5.14356115 -2.98056727 9.35926504 -5.25 13.9375 C-9.64772807 22.98810887 -13.75708779 32.14099133 -17.75 41.375 C-18.01768188 41.99172577 -18.28536377 42.60845154 -18.56115723 43.24386597 C-22.21949993 51.67707984 -22.21949993 51.67707984 -25.61914062 60.21582031 C-25.88478821 60.90713043 -26.15043579 61.59844055 -26.4241333 62.31069946 C-26.93316124 63.64429046 -27.43258828 64.98159652 -27.92108154 66.32284546 C-28.53055249 67.91639437 -29.25706459 69.46412894 -30 71 C-30.99 71.33 -31.98 71.66 -33 72 C-33.32049316 71.45400146 -33.64098633 70.90800293 -33.97119141 70.34545898 C-45.08782422 51.42516228 -56.46316958 32.66673494 -68 14 C-64.82251223 11.88167482 -62.83335715 11.3985975 -59.12329102 10.67138672 C-57.91516251 10.43128876 -56.707034 10.1911908 -55.46229553 9.94381714 C-54.14288186 9.68885137 -52.82341749 9.43414785 -51.50390625 9.1796875 C-50.15004635 8.91398687 -48.79628271 8.64779529 -47.44261169 8.38113403 C-44.60634766 7.82391278 -41.76923745 7.27130049 -38.93139648 6.72216797 C-35.29725906 6.01876685 -31.66502215 5.30608013 -28.03332615 4.59019279 C-25.23806881 4.03988272 -22.44206348 3.49345805 -19.64579582 2.94830704 C-18.30640071 2.68690845 -16.96719185 2.42455366 -15.62817574 2.16122055 C-13.75488941 1.79364184 -11.88051695 1.4316115 -10.00610352 1.06982422 C-8.94037613 0.86267792 -7.87464874 0.65553162 -6.77662659 0.44210815 C-4 0 -4 0 0 0 Z " fill="#203864" transform="translate(86,118)"/>
</svg>
