<?xml version="1.0" encoding="UTF-8"?>
<svg version="1.1" xmlns="http://www.w3.org/2000/svg" width="192" height="127">
<path d="M0 0 C3.07132234 1.26726281 4.52926748 3.64062966 6.54150391 6.22827148 C9.57934263 10.14250873 9.57934263 10.14250873 12.91650391 13.79077148 C12.70827851 16.3422567 12.19804723 17.50236347 10.40454102 19.33959961 C9.4339978 20.07339844 9.4339978 20.07339844 8.44384766 20.82202148 C7.71770264 21.37873535 6.99155762 21.93544922 6.2434082 22.5090332 C5.45490479 23.09700684 4.66640137 23.68498047 3.85400391 24.29077148 C3.03907471 24.91097168 2.22414551 25.53117187 1.38452148 26.17016602 C-1.09692584 28.05443754 -3.58870543 29.9242163 -6.08349609 31.79077148 C-7.42225396 32.79829677 -8.76081176 33.80608798 -10.09912109 34.81420898 C-12.67452364 36.75063417 -15.25493664 38.6801858 -17.83740234 40.60717773 C-22.69494805 44.23910602 -27.51342109 47.92184549 -32.33349609 51.60327148 C-39.28486694 56.91195892 -46.26322566 62.18179173 -53.27099609 67.41577148 C-60.44118055 72.77375779 -67.53163725 78.22392038 -74.58300781 83.73706055 C-79.94979099 87.92686571 -85.37132104 92.03551669 -90.82788086 96.10742188 C-96.50089414 100.3438401 -102.13914825 104.62481596 -107.77099609 108.91577148 C-108.66463867 109.59422119 -109.55828125 110.2726709 -110.47900391 110.97167969 C-114.41102073 113.9620896 -118.32584894 116.96456979 -122.16943359 120.06811523 C-122.76667236 120.54555176 -123.36391113 121.02298828 -123.97924805 121.51489258 C-125.52318102 122.75465244 -127.05580834 124.00845628 -128.58740234 125.26342773 C-131.08349609 126.79077148 -131.08349609 126.79077148 -133.04296875 126.66772461 C-135.86691345 125.45408386 -136.64586208 123.90571597 -138.22802734 121.28686523 C-139.10817505 119.85250122 -139.10817505 119.85250122 -140.00610352 118.38916016 C-140.94160034 116.82452026 -140.94160034 116.82452026 -141.89599609 115.22827148 C-143.24203622 113.0249546 -144.58839948 110.8218351 -145.93505859 108.61889648 C-146.62964647 107.47386698 -147.32398178 106.32868423 -148.01806641 105.18334961 C-151.22283717 99.91934316 -154.49728259 94.69957285 -157.77099609 89.47827148 C-159.00803342 87.49914117 -160.24501332 85.51997496 -161.48193359 83.54077148 C-164.94169681 78.01261075 -168.41440055 72.49270566 -171.89599609 66.97827148 C-172.39381592 66.18960693 -172.89163574 65.40094238 -173.40454102 64.58837891 C-175.27127088 61.63587452 -177.14568054 58.69749481 -179.08349609 55.79077148 C-178.89787971 53.09053463 -178.34452099 52.04764708 -176.40942383 50.14331055 C-175.70245361 49.61962891 -174.9954834 49.09594727 -174.26708984 48.55639648 C-173.12143555 47.69594727 -173.12143555 47.69594727 -171.95263672 46.81811523 C-170.74897461 45.93833008 -170.74897461 45.93833008 -169.52099609 45.04077148 C-168.7146875 44.4387793 -167.90837891 43.83678711 -167.07763672 43.21655273 C-165.08628914 41.73187939 -163.08828716 40.25721262 -161.08349609 38.79077148 C-156.78151055 42.52805725 -154.18330048 47.21790649 -151.27099609 52.04077148 C-150.12183035 53.92002876 -148.97206547 55.79891976 -147.82177734 57.67749023 C-147.2180127 58.66668457 -146.61424805 59.65587891 -145.9921875 60.67504883 C-142.67727527 66.0862678 -139.31868022 71.47009008 -135.95849609 76.85327148 C-135.31936279 77.88162109 -134.68022949 78.9099707 -134.02172852 79.96948242 C-133.42078369 80.93273437 -132.81983887 81.89598633 -132.20068359 82.88842773 C-131.67071777 83.73928955 -131.14075195 84.59015137 -130.59472656 85.46679688 C-129.17462223 87.65063744 -127.67311313 89.72807538 -126.08349609 91.79077148 C-125.61153809 91.41903809 -125.13958008 91.04730469 -124.65332031 90.66430664 C-116.30509496 84.10021862 -107.94701101 77.58782794 -99.26342773 71.47192383 C-94.91535991 68.40408933 -90.64493631 65.24432508 -86.39599609 62.04077148 C-80.54577637 57.63158021 -74.67130224 53.25774524 -68.77099609 48.91577148 C-67.97532227 48.33013428 -67.17964844 47.74449707 -66.35986328 47.14111328 C-63.14457002 44.7756131 -59.92831265 42.41142819 -56.71142578 40.0480957 C-48.62964228 34.10994577 -40.55802242 28.16071935 -32.54614258 22.12841797 C-29.22760426 19.63125237 -25.90203167 17.14356658 -22.57519531 14.6574707 C-20.88634053 13.39223617 -19.20055559 12.12289546 -17.51757812 10.84985352 C-15.04840221 8.9846419 -12.56753414 7.13612206 -10.08349609 5.29077148 C-9.33575928 4.72028076 -8.58802246 4.14979004 -7.81762695 3.56201172 C-7.12161377 3.04968994 -6.42560059 2.53736816 -5.70849609 2.00952148 C-5.10263672 1.55512695 -4.49677734 1.10073242 -3.87255859 0.63256836 C-2.08349609 -0.20922852 -2.08349609 -0.20922852 0 0 Z " fill="#00B04F" transform="translate(179.08349609375,0.209228515625)"/>
</svg>
