<?xml version="1.0" encoding="UTF-8"?>
<svg version="1.1" xmlns="http://www.w3.org/2000/svg" width="265" height="251">
<path d="M0 0 C3.78271728 3.13885051 5.82088381 5.20883815 6.3125 10.125 C5.93071272 14.85916224 4.32258579 17.94247061 2 22 C1.67 22.66 1.34 23.32 1 24 C1.87269531 24.52851563 2.74539062 25.05703125 3.64453125 25.6015625 C7.28938102 28.03858189 9.9091917 31.01424105 12.6875 34.375 C13.20513916 34.98931885 13.72277832 35.6036377 14.25610352 36.23657227 C18.20915503 40.96012871 22.00759145 45.79827776 25.77734375 50.66845703 C29.27405347 55.15581768 32.94300633 59.46811214 36.6875 63.75 C37.78138443 65.00639339 38.87513814 66.2629006 39.96875 67.51953125 C41.8189353 69.6455098 43.67312323 71.76765133 45.53125 73.88671875 C49.72668895 78.84980142 52.04097165 82.52655861 53 89 C53.54785156 88.67644531 54.09570312 88.35289063 54.66015625 88.01953125 C58.91829193 86.16414992 63.44427288 86.56064946 68 87 C71.05348543 88.24632058 72.36625001 89.15500001 74.3125 91.75 C75.80769211 96.64335601 75.37734337 100.83925379 73.5625 105.5625 C69.09014325 113.92275778 60.36323605 119.34169094 53 125 C51.2205959 126.39187507 49.44548651 127.78907129 47.6706543 129.18676758 C46.5558182 130.06309424 45.4387823 130.93662949 44.31958008 131.80737305 C40.3110634 134.93235657 36.38573527 138.14746904 32.47802734 141.39746094 C10.69945103 159.50570519 10.69945103 159.50570519 0.875 158.9375 C-3.57114763 157.86181912 -5.16709512 156.51966969 -8 153 C-9.56428238 149.87143524 -9.28007086 147.47287869 -9 144 C-7.46398146 140.02527904 -5.35828698 136.53743047 -3 133 C-3.556875 132.938125 -4.11375 132.87625 -4.6875 132.8125 C-9.98916336 130.94975341 -13.53433026 125.25782282 -17 121 C-17.53109375 121.39832031 -18.0621875 121.79664062 -18.609375 122.20703125 C-20.73958333 123.8046875 -22.86979167 125.40234375 -25 127 C-25.68964844 127.54785156 -26.37929687 128.09570312 -27.08984375 128.66015625 C-29 130 -29 130 -31.8125 130.625 C-36.5834513 129.68951935 -38.90656877 126.58764806 -42 123 C-47.48222084 126.90081098 -52.44506117 131.17405551 -57.35986328 135.75463867 C-61.54404822 139.63395899 -65.90685637 143.24162361 -70.3515625 146.8203125 C-72.97275119 148.97757399 -75.49154281 151.21311 -78 153.5 C-81.39598682 156.59555196 -84.86171531 159.55151207 -88.4375 162.4375 C-93.19631641 166.28605054 -97.70558796 170.34800161 -102.20703125 174.4921875 C-106.66747845 178.4972324 -111.32100284 182.25318216 -116 186 C-119.38958412 182.65858048 -122.64172281 179.23687745 -125.8125 175.6875 C-126.60269531 174.80449219 -127.39289063 173.92148438 -128.20703125 173.01171875 C-128.79871094 172.34785156 -129.39039063 171.68398437 -130 171 C-126.16598925 166.29124761 -122.16992028 162.18628971 -117.5 158.3125 C-116.26029215 157.26707472 -115.02071243 156.22149748 -113.78125 155.17578125 C-112.83958984 154.3861499 -112.83958984 154.3861499 -111.87890625 153.58056641 C-108.90073928 151.07528406 -105.95138889 148.53671376 -103 146 C-101.83348285 144.99982559 -100.66681586 143.99982591 -99.5 143 C-98.9225 142.505 -98.345 142.01 -97.75 141.5 C-96 140 -94.25 138.5 -92.5 137 C-91.9222583 136.5047583 -91.3445166 136.0095166 -90.74926758 135.49926758 C-89.58518023 134.50154805 -88.42095544 133.50398886 -87.2565918 132.5065918 C-84.29930113 129.97301257 -81.34461631 127.43649863 -78.39453125 124.89453125 C-71.34430358 118.8252547 -64.23604232 112.84790359 -57 107 C-58.08784968 103.75016865 -58.08784968 103.75016865 -60 101 C-60.375 98.25 -60.375 98.25 -60 95 C-57.875 92.4375 -57.875 92.4375 -55 90 C-54.44957031 89.53078125 -53.89914063 89.0615625 -53.33203125 88.578125 C-51.90190576 87.36880273 -50.4525428 86.18230228 -49 85 C-50.06764731 81.97499929 -51.25894376 79.61550776 -53.0625 76.9375 C-54.70988017 74.4398591 -55.55455115 72.89541755 -56 70 C-56.54785156 70.15984375 -57.09570312 70.3196875 -57.66015625 70.484375 C-63.07480503 71.67758642 -68.9112593 71.85254722 -74.0625 69.75 C-77.24838581 66.87242572 -77.88192887 65.02328311 -78.375 60.75 C-77.50024676 52.00246764 -72.43447894 46.5925845 -66 41 C-62.64734913 38.27863708 -59.25388181 35.61895283 -55.8359375 32.98046875 C-51.88132957 29.92371306 -47.9987232 26.78329732 -44.125 23.625 C-43.13306641 22.8194165 -43.13306641 22.8194165 -42.12109375 21.99755859 C-38.63303993 19.16140651 -35.16249372 16.3062561 -31.7109375 13.42578125 C-30.65302002 12.54962158 -30.65302002 12.54962158 -29.57373047 11.65576172 C-28.23669035 10.54791049 -26.90457536 9.4340749 -25.57861328 8.31298828 C-18.16656219 2.19303536 -9.89053967 -2.92398891 0 0 Z M-27.0625 19.5625 C-28.54386323 20.79606257 -30.02564452 22.02912324 -31.5078125 23.26171875 C-32.62397949 24.19250244 -32.62397949 24.19250244 -33.76269531 25.14208984 C-37.2996857 28.07928941 -40.86691508 30.97880206 -44.4375 33.875 C-45.10201172 34.41463379 -45.76652344 34.95426758 -46.45117188 35.51025391 C-50.14116977 38.5035195 -53.8451478 41.47821811 -57.5625 44.4375 C-59.04297038 45.62337425 -60.5222565 46.81072945 -62 48 C-62.68964844 48.55300781 -63.37929687 49.10601562 -64.08984375 49.67578125 C-65.03537109 50.45501953 -65.03537109 50.45501953 -66 51.25 C-66.53625 51.68828125 -67.0725 52.1265625 -67.625 52.578125 C-69.25947586 54.26832162 -70.133263 55.81821377 -71 58 C-70.72455805 61.31550202 -70.72455805 61.31550202 -69 64 C-60.23780546 64.13908245 -56.38118614 60.61236853 -50 55 C-47.43373554 52.87471318 -44.84129333 50.7821493 -42.25 48.6875 C-41.56292969 48.12844971 -40.87585938 47.56939941 -40.16796875 46.9934082 C-35.79003708 43.43275193 -31.38051891 39.91649155 -26.9375 36.4375 C-26.37788574 35.99720459 -25.81827148 35.55690918 -25.24169922 35.10327148 C-22.15592381 32.67747236 -19.0538522 30.27583934 -15.93359375 27.89453125 C-14.58052625 26.84661612 -13.22765698 25.79844497 -11.875 24.75 C-10.93321899 24.04315063 -10.93321899 24.04315063 -9.97241211 23.32202148 C-5.72569094 20.00526459 -3.31619652 16.8878132 -1 12 C-1.18524694 9.65353874 -1.35260358 8.64739642 -3 7 C-12.74332214 5.57909885 -20.05827578 13.66429419 -27.0625 19.5625 Z M-12.875 34.625 C-13.81085938 35.44226562 -14.74671875 36.25953125 -15.7109375 37.1015625 C-16.2275293 37.56079102 -16.74412109 38.02001953 -17.27636719 38.49316406 C-20.61469065 41.41159642 -24.06897353 44.19183447 -27.5 47 C-28.95863064 48.20276454 -30.41696862 49.40588408 -31.875 50.609375 C-34.40667489 52.69497064 -36.94593065 54.77002028 -39.5 56.828125 C-40.49 57.62734375 -41.48 58.4265625 -42.5 59.25 C-43.3559375 59.93578125 -44.211875 60.6215625 -45.09375 61.328125 C-47.74988826 63.65768888 -47.96244904 64.67271371 -48.37109375 68.234375 C-47.91605797 72.85179067 -46.12348839 75.00735506 -43.0625 78.25 C-42.03820187 79.39506405 -41.01477529 80.54090829 -39.9921875 81.6875 C-39.48139648 82.24953125 -38.97060547 82.8115625 -38.44433594 83.390625 C-36.44756987 85.61555433 -34.56604346 87.92485942 -32.6875 90.25 C-27.64911941 96.43305739 -22.59533587 102.6027249 -17.50390625 108.7421875 C-15.26375513 111.44753005 -13.06517029 114.17784738 -10.90234375 116.9453125 C-10.42071777 117.54811035 -9.9390918 118.1509082 -9.44287109 118.77197266 C-8.55185284 119.88740018 -7.67468518 121.01410129 -6.81494141 122.15380859 C-4.52228361 124.98353505 -3.02055748 125.9939038 0.50390625 127.0390625 C4.56431734 126.99369478 5.85336696 126.36608449 9 123.875 C9.9384375 123.13894531 10.876875 122.40289062 11.84375 121.64453125 C16.74494931 117.57847875 21.55047267 113.40085352 26.33203125 109.1953125 C30.37532136 105.64938192 34.53155893 102.2627616 38.73046875 98.90234375 C39.85388672 97.96068359 39.85388672 97.96068359 41 97 C41.75925781 96.40316406 42.51851563 95.80632812 43.30078125 95.19140625 C45.28681305 93.00197933 45.28681305 93.00197933 45.49609375 89.578125 C44.91465699 85.38445515 43.86455114 83.87296982 41.0625 80.75 C40.23621094 79.80382812 39.40992188 78.85765625 38.55859375 77.8828125 C37.71425781 76.93148437 36.86992187 75.98015625 36 75 C34.53332405 73.21515625 33.07484528 71.42354225 31.625 69.625 C27.88868556 65.0519068 24.07180367 60.55380495 20.23803711 56.06274414 C16.3106843 51.43180062 12.55764461 46.67536069 8.87939453 41.84448242 C7.6149133 40.20366172 6.32021915 38.59626054 5 37 C4.30124756 36.13737549 4.30124756 36.13737549 3.58837891 35.25732422 C0.86059071 32.17377682 -0.3831255 31.10393728 -4.5703125 30.3984375 C-8.47428405 31.08318877 -9.9550862 31.99229083 -12.875 34.625 Z M-48.125 93.5 C-48.84945312 94.1496875 -49.57390625 94.799375 -50.3203125 95.46875 C-50.87460938 95.9740625 -51.42890625 96.479375 -52 97 C-50.44723191 100.51415937 -48.33432968 103.18580112 -45.875 106.125 C-41.52080178 111.36838618 -37.24486515 116.66789418 -33 122 C-29.77498221 120.82426949 -27.26228868 119.65039465 -24.6875 117.375 C-23.800625 116.59125 -22.91375 115.8075 -22 115 C-26.31880758 109.00165614 -31.0114547 103.40819379 -35.86035156 97.83740234 C-36.3653418 97.25555176 -36.87033203 96.67370117 -37.390625 96.07421875 C-37.84469727 95.55432373 -38.29876953 95.03442871 -38.76660156 94.4987793 C-40 93 -40 93 -42 90 C-44.94354357 90 -45.97578837 91.55877659 -48.125 93.5 Z M44.9375 104.5625 C43.42686268 105.82551333 41.91512956 107.08721709 40.40234375 108.34765625 C39.65710449 108.96914551 38.91186523 109.59063477 38.14404297 110.23095703 C35.13909395 112.71033081 32.07697271 115.11103767 29 117.5 C23.58610034 121.71951741 18.24509445 126.02249967 12.9375 130.375 C12.22271484 130.95830078 11.50792969 131.54160156 10.77148438 132.14257812 C3.02815259 138.0228245 3.02815259 138.0228245 -2 146 C-1.61412603 148.79564735 -1.61412603 148.79564735 0 151 C6.9626517 152.01538671 10.52332022 149.00747787 16 145 C18.78516039 142.83502623 21.49177088 140.58741994 24.1875 138.3125 C29.40124527 133.96389771 34.63946491 129.66644529 40 125.5 C45.4090061 121.27127022 50.78768799 117.00644924 56.125 112.6875 C56.84816406 112.11257812 57.57132813 111.53765625 58.31640625 110.9453125 C62.37907173 107.63527692 65.48828148 104.62995634 68 100 C67.82455283 96.65316604 67.82455283 96.65316604 66 94 C57.33142459 92.96802674 51.12548332 99.31728422 44.9375 104.5625 Z M-52 112 C-52.99966797 112.92619141 -52.99966797 112.92619141 -54.01953125 113.87109375 C-58.74907917 118.21698604 -63.49824151 122.4653925 -68.5 126.5 C-72.28460334 129.55348679 -75.92207537 132.70668301 -79.5 136 C-83.9698512 140.11378909 -88.59044893 143.97087297 -93.31640625 147.78515625 C-96.79493634 150.65608283 -100.11077444 153.68630161 -103.4375 156.73046875 C-107.08545356 159.96135445 -110.90806782 162.96097902 -114.75 165.95703125 C-116.90111827 167.91021676 -117.94319168 169.32795624 -119 172 C-117.68 172.99 -116.36 173.98 -115 175 C-109.55038059 170.61751139 -104.16853075 166.21150633 -99 161.5 C-95.60401318 158.40444804 -92.13828469 155.44848793 -88.5625 152.5625 C-84.75912497 149.48663412 -81.09917348 146.31246834 -77.5 143 C-73.0403285 138.89557972 -68.43187255 135.04558805 -63.71484375 131.2421875 C-60.06509265 128.22786069 -56.57594599 125.05285938 -53.09375 121.84765625 C-51 120 -51 120 -48 118 C-49.11854586 114.27385847 -49.11854586 114.27385847 -52 112 Z " fill="#40719B" transform="translate(130,1)"/>
<path d="M0 0 C1.08655884 -0.00700928 2.17311768 -0.01401855 3.29260254 -0.02124023 C6.88803585 -0.03886056 10.48268354 -0.02718245 14.078125 -0.01367188 C16.57389477 -0.01636561 19.06966352 -0.02024703 21.56542969 -0.02526855 C26.79760775 -0.03116908 32.02958108 -0.02296334 37.26171875 -0.00390625 C43.30809512 0.01786244 49.35393196 0.01081088 55.40029526 -0.01121187 C61.22025466 -0.03156034 67.0400092 -0.02939482 72.85998535 -0.01768494 C75.33516515 -0.01501343 77.81035869 -0.01830224 80.28552246 -0.02760315 C83.74280459 -0.03774296 87.19904557 -0.02230206 90.65625 0 C91.68286743 -0.00809692 92.70948486 -0.01619385 93.76721191 -0.02453613 C100.67865294 0.05821084 100.67865294 0.05821084 103.96673584 2.3838501 C105.72850337 5.14509784 105.78817022 6.89545257 105.71875 10.15820312 C105.70875977 11.12274414 105.69876953 12.08728516 105.68847656 13.08105469 C105.65206055 14.29760742 105.61564453 15.51416016 105.578125 16.76757812 C105.495625 20.64507812 105.413125 24.52257812 105.328125 28.51757812 C114.568125 28.51757812 123.808125 28.51757812 133.328125 28.51757812 C133.328125 37.42757812 133.328125 46.33757812 133.328125 55.51757812 C75.578125 55.51757812 17.828125 55.51757812 -41.671875 55.51757812 C-41.671875 46.60757813 -41.671875 37.69757813 -41.671875 28.51757812 C-32.761875 28.51757812 -23.851875 28.51757812 -14.671875 28.51757812 C-14.82979402 20.79874653 -14.82979402 20.79874653 -15.03222656 13.08105469 C-15.0422168 12.11651367 -15.05220703 11.15197266 -15.0625 10.15820312 C-15.08344727 9.17368164 -15.10439453 8.18916016 -15.12597656 7.17480469 C-14.671875 4.51757812 -14.671875 4.51757812 -13.31048584 2.3838501 C-9.14115872 -0.56508736 -4.98641777 -0.03932784 0 0 Z M-8.671875 8.51757812 C-8.671875 15.11757812 -8.671875 21.71757812 -8.671875 28.51757812 C26.968125 28.51757812 62.608125 28.51757812 99.328125 28.51757812 C99.328125 21.91757813 99.328125 15.31757813 99.328125 8.51757812 C96.9303312 6.11978432 96.41972679 6.26684158 93.15283203 6.26361084 C92.277901 6.25797119 91.40296997 6.25233154 90.50152588 6.246521 C89.05830963 6.25259369 89.05830963 6.25259369 87.5859375 6.25878906 C86.57448669 6.25528442 85.56303589 6.25177979 84.52093506 6.24816895 C81.16492933 6.23933919 77.80913301 6.24520522 74.453125 6.25195312 C72.1290686 6.25060683 69.80501247 6.24866661 67.48095703 6.24615479 C62.60511601 6.24320183 57.72934816 6.24750669 52.85351562 6.25683594 C46.5917885 6.26823051 40.3302328 6.26167196 34.06851196 6.24969101 C29.2679718 6.24247705 24.46747253 6.24475821 19.66693115 6.24994659 C17.35756409 6.25128438 15.04819335 6.24963091 12.73883057 6.24498749 C9.51589061 6.2399299 6.29323145 6.24762177 3.0703125 6.25878906 C2.10816833 6.2547406 1.14602417 6.25069214 0.15472412 6.246521 C-1.15767242 6.25498047 -1.15767242 6.25498047 -2.49658203 6.26361084 C-3.64031784 6.26474192 -3.64031784 6.26474192 -4.80715942 6.26589584 C-6.917292 6.35888077 -6.917292 6.35888077 -8.671875 8.51757812 Z M-35.671875 34.51757812 C-35.671875 39.46757812 -35.671875 44.41757813 -35.671875 49.51757812 C18.118125 49.51757812 71.908125 49.51757812 127.328125 49.51757812 C127.328125 44.56757813 127.328125 39.61757812 127.328125 34.51757812 C73.538125 34.51757812 19.748125 34.51757812 -35.671875 34.51757812 Z " fill="#40709B" transform="translate(131.671875,195.482421875)"/>
</svg>
