<?xml version="1.0" encoding="UTF-8"?>
<svg version="1.1" xmlns="http://www.w3.org/2000/svg" width="186" height="179">
<path d="M0 0 C9.51024626 7.9644721 18.23036589 17.24218339 23.35839844 28.68164062 C23.35839844 29.34164062 23.35839844 30.00164063 23.35839844 30.68164062 C24.41800781 30.32070313 25.47761719 29.95976563 26.56933594 29.58789062 C27.95730342 29.11898269 29.34532719 28.65024132 30.73339844 28.18164062 C31.43207031 27.94316406 32.13074219 27.7046875 32.85058594 27.45898438 C38.13183594 25.68164062 38.13183594 25.68164062 40.35839844 25.68164062 C39.69151378 32.9603062 37.89498696 39.81029552 36.01464844 46.86132812 C35.68549438 48.11043976 35.35634033 49.35955139 35.01721191 50.64651489 C34.32438733 53.27463682 33.62816419 55.90182492 32.92919922 58.52832031 C32.03300488 61.89628802 31.14337369 65.26594549 30.25598907 68.63624382 C29.40729452 71.85779104 28.554709 75.07830173 27.70214844 78.29882812 C27.38234009 79.51021454 27.06253174 80.72160095 26.73303223 81.96969604 C26.43602417 83.08490631 26.13901611 84.20011658 25.83300781 85.34912109 C25.44115295 86.82516312 25.44115295 86.82516312 25.04138184 88.33102417 C24.35839844 90.68164063 24.35839844 90.68164063 23.35839844 92.68164062 C19.39044888 90.89606332 15.9158361 88.40651359 12.35839844 85.93164062 C11.31703735 85.2112561 11.31703735 85.2112561 10.25463867 84.47631836 C7.95324095 82.88187102 5.65530826 81.28254575 3.35839844 79.68164062 C2.5567627 79.12299316 1.75512695 78.5643457 0.92919922 77.98876953 C-10.62476949 69.92950567 -22.14036931 61.81593183 -33.64160156 53.68164062 C-30.92960249 50.7468329 -28.85648772 49.95825956 -24.95410156 48.99414062 C-23.96023437 48.74277344 -22.96636719 48.49140625 -21.94238281 48.23242188 C-21.183125 48.05066406 -20.42386719 47.86890625 -19.64160156 47.68164062 C-26.19123073 36.9402488 -35.2042021 30.26732453 -47.57910156 27.24414062 C-59.09270869 25.45436516 -71.19497524 27.53017162 -80.70410156 34.43164062 C-81.67347656 35.17414062 -82.64285156 35.91664062 -83.64160156 36.68164062 C-84.30160156 36.68164062 -84.96160156 36.68164062 -85.64160156 36.68164062 C-85.91359375 37.28105469 -86.18558594 37.88046875 -86.46582031 38.49804688 C-87.6155723 40.63330057 -88.74899155 41.92302855 -90.45410156 43.61914062 C-97.28817168 51.45822105 -100.06646699 62.44624615 -99.64160156 72.68164062 C-98.56728763 81.87981423 -96.05625036 89.17908098 -90.64160156 96.68164062 C-89.91972656 97.73351562 -89.19785156 98.78539063 -88.45410156 99.86914062 C-79.7698041 108.55343809 -68.74040314 113.4268876 -56.51660156 113.93164062 C-47.31666724 113.77701988 -39.45039685 111.09640154 -31.79785156 106.08398438 C-29.79787847 104.78327723 -27.79429096 103.70416809 -25.64160156 102.68164062 C-21.4738068 106.73542277 -17.52425492 110.8977349 -13.73535156 115.30664062 C-12.07406701 117.1910828 -10.38956059 119.03597144 -8.67285156 120.86914062 C-8.14328857 121.43552246 -7.61372559 122.0019043 -7.06811523 122.58544922 C-6.01709652 123.70626028 -4.96273141 124.8239457 -3.90454102 125.93798828 C-0.73476156 129.32385373 1.88748242 132.75412256 4.35839844 136.68164062 C-6.87548001 146.96349548 -19.92708364 153.72724401 -34.64160156 157.68164062 C-35.86943359 158.01808594 -35.86943359 158.01808594 -37.12207031 158.36132812 C-60.56449734 163.66767595 -85.49663391 158.07067331 -105.73535156 145.72070312 C-111.20146903 141.88560458 -115.92512993 137.39157068 -120.64160156 132.68164062 C-121.45757812 131.87726563 -122.27355469 131.07289063 -123.11425781 130.24414062 C-139.26211549 113.40383622 -146.16635294 90.7938082 -145.99511719 67.86767578 C-145.36775759 41.85465818 -134.06878005 20.30664734 -115.68457031 2.35351562 C-83.89722072 -26.50810674 -32.95968877 -26.46970841 0 0 Z " fill="#00B050" transform="translate(145.6416015625,19.318359375)"/>
</svg>
