<?xml version="1.0" encoding="UTF-8"?>
<svg version="1.1" xmlns="http://www.w3.org/2000/svg" width="210" height="237">
<path d="M0 0 C69.3 0 138.6 0 210 0 C210 78.21 210 156.42 210 237 C140.7 237 71.4 237 0 237 C0 158.79 0 80.58 0 0 Z " fill="#203863" transform="translate(0,0)"/>
<path d="M0 0 C52.47 0 104.94 0 159 0 C159 36.3 159 72.6 159 110 C106.53 110 54.06 110 0 110 C0 73.7 0 37.4 0 0 Z " fill="#E7E6E6" transform="translate(22,110)"/>
<path d="M0 0 C15.42928736 -0.11289129 30.85837019 -0.20498637 46.2879591 -0.25906086 C53.45229572 -0.28483663 60.61635742 -0.31997456 67.78051758 -0.37719727 C74.02522555 -0.42705218 80.26973441 -0.4592956 86.51463586 -0.47044247 C89.82105277 -0.476958 93.12676764 -0.49488214 96.4330349 -0.52865028 C100.12521733 -0.56486542 103.8162139 -0.56994819 107.50854492 -0.56762695 C109.15068718 -0.59459152 109.15068718 -0.59459152 110.82600403 -0.62210083 C112.33824051 -0.61179085 112.33824051 -0.61179085 113.88102722 -0.60127258 C114.75396518 -0.60588155 115.62690313 -0.61049051 116.52629375 -0.61523914 C119 0 119 0 124 5 C124 18.86 124 32.72 124 47 C83.08 47 42.16 47 0 47 C0 31.49 0 15.98 0 0 Z " fill="#E6E5E5" transform="translate(31,20)"/>
<path d="M0 0 C69.3 0 138.6 0 210 0 C210 78.21 210 156.42 210 237 C140.7 237 71.4 237 0 237 C0 158.79 0 80.58 0 0 Z M1 1 C1 78.55 1 156.1 1 236 C69.64 236 138.28 236 209 236 C209.70125 203.53625 210.4025 171.0725 211.125 137.625 C211.43453613 127.44092285 211.74407227 117.2568457 212.06298828 106.76416016 C212.17681988 97.49486823 212.17681988 97.49486823 212.24508667 88.22518921 C212.27633276 84.14589426 212.40161556 80.08219499 212.58956909 76.00717163 C213.52399252 54.7458643 213.06480345 36.64288518 198.70809555 19.79594803 C186.42355702 6.46211652 173.52509856 -1.9659289 155.16748047 -2.85986328 C148.86093449 -3.03112719 142.59447983 -2.78144129 136.29768372 -2.44352722 C131.98302659 -2.24519481 127.67497053 -2.24056388 123.35571289 -2.21655273 C110.85808703 -2.04034044 98.36609818 -1.5656464 85.875 -1.125 C57.86625 -0.42375 29.8575 0.2775 1 1 Z " fill="#000000" transform="translate(0,0)"/>
<path d="M0 0 C11.22 0 22.44 0 34 0 C34 11.22 34 22.44 34 34 C29.28042244 29.95464781 24.78102542 25.92979507 20.41015625 21.54296875 C19.82076767 20.9545369 19.23137909 20.36610504 18.62413025 19.75984192 C17.39361893 18.53000519 16.16434566 17.29892856 14.9362793 16.06665039 C13.04655252 14.1715068 11.15146729 12.28183723 9.25585938 10.39257812 C8.05697038 9.19302935 6.85839108 7.99317097 5.66015625 6.79296875 C5.09152359 6.22636032 4.52289093 5.65975189 3.93702698 5.07597351 C0 1.11498718 0 1.11498718 0 0 Z " fill="#818181" transform="translate(176,0)"/>
</svg>
